<?xml version="1.0" encoding="UTF-8"?>
<!DOCTYPE svg PUBLIC "-//W3C//DTD SVG 1.1//EN" "http://www.w3.org/Graphics/SVG/1.1/DTD/svg11.dtd">
<!-- Creator: CorelDRAW -->
<svg xmlns="http://www.w3.org/2000/svg" xml:space="preserve" width="850px" height="850px" version="1.1" style="shape-rendering:geometricPrecision; text-rendering:geometricPrecision; image-rendering:optimizeQuality; fill-rule:evenodd; clip-rule:evenodd"
viewBox="0 0 850 850"
 xmlns:xlink="http://www.w3.org/1999/xlink">
 <defs>
  <style type="text/css">
   <![CDATA[
    .fil0 {fill:#4F576C}
    .fil1 {fill:white}
   ]]>
  </style>
 </defs>
 <g id="Layer_x0020_1">
  <metadata id="CorelCorpID_0Corel-Layer"/>
  <circle class="fil0" cx="425" cy="425" r="425"/>
  <path class="fil1" d="M659 598l-468 0c-4,0 -7,-3 -7,-7l0 -46 482 0 0 46c0,4 -3,7 -7,7zm-224 -22l-20 0c-4,0 -7,-3 -7,-7 0,-4 3,-7 7,-7l20 0c4,0 7,3 7,7 0,4 -3,7 -7,7zm-251 -45l0 -235c0,-4 3,-7 7,-7l44 0 0 185c0,19 16,34 35,34l310 0c19,0 35,-15 35,-34l0 -185 44 0c4,0 7,3 7,7l0 235 -482 0z"/>
  <path class="fil1" d="M375 648c-4,0 -7,-3 -7,-7l0 -29 114 0 0 29c0,4 -3,7 -7,7 -4,0 -70,-2 -93,-5 -1,3 -3,5 -7,5z"/>
  <path class="fil1" d="M606 681l-362 0c-4,0 -7,-3 -7,-7l0 -17c0,-13 10,-23 23,-23l330 0c13,0 23,10 23,23l0 17c0,4 -3,7 -7,7z"/>
  <path class="fil1" d="M580 494l-11 0 0 -163c0,-4 -3,-7 -7,-7 -4,0 -7,3 -7,7l0 163 -260 0 0 -163c0,-4 -3,-7 -7,-7 -4,0 -7,3 -7,7l0 163 -11 0c-12,0 -21,-9 -21,-20l0 -212 352 0 0 212c0,11 -9,20 -21,20zm-60 -17c-2,0 -4,-2 -6,-4l-6 -11 -7 11c-1,2 -3,4 -6,4 -2,0 -5,-2 -6,-4l-13 -22c-2,-3 0,-7 3,-9 3,-2 8,-1 10,2l6 12 7 -12c1,-2 3,-3 6,-3 2,0 5,1 6,3l6 12 7 -12c2,-3 6,-4 9,-2 4,2 5,6 3,9l-13 22c-1,2 -3,4 -6,4zm-82 0c-3,0 -5,-2 -6,-4l-7 -11 -7 11c-1,2 -3,4 -6,4 -2,0 -4,-2 -6,-4l-12 -22c-2,-3 -1,-7 2,-9 4,-2 8,-1 10,2l6 12 7 -12c1,-2 3,-3 6,-3 2,0 5,1 6,3l7 12 6 -12c2,-3 6,-4 10,-2 3,2 4,6 2,9l-12 22c-2,2 -4,4 -6,4zm-83 0l0 0c-3,0 -5,-2 -6,-4l-7 -11 -6 11c-2,2 -4,4 -6,4 -3,0 -5,-2 -6,-4l-13 -22c-2,-3 -1,-7 3,-9 3,-2 7,-1 9,2l7 12 6 -12c1,-2 4,-3 6,-3l0 0c3,0 5,1 6,3l7 12 6 -12c2,-3 7,-4 10,-2 3,2 5,6 3,9l-13 22c-1,2 -4,4 -6,4zm70 -44c-28,0 -52,-14 -66,-35 0,-1 0,-1 -1,-1 -7,-12 -11,-26 -12,-40 0,-1 0,-2 0,-2 0,-1 0,-2 0,-2 1,-15 5,-29 12,-40 1,-1 1,-1 1,-1 14,-22 38,-36 66,-36l0 0 0 0c28,0 52,14 66,36 0,0 0,0 1,1 7,11 11,25 12,40 0,0 0,1 0,2 0,0 0,1 0,2 -1,14 -5,28 -12,40 -1,0 -1,0 -1,1 -14,21 -38,35 -66,35zm-17 -141c-11,3 -21,9 -29,17l24 0c1,-2 1,-5 2,-7 1,-4 2,-7 3,-10zm9 17l16 0 -1 0c-2,-13 -6,-17 -7,-19 -1,2 -5,6 -7,19l-1 0zm30 0l24 0c-8,-8 -18,-14 -29,-17 1,3 2,6 3,10 1,2 1,5 2,7zm-78 14c-5,7 -7,16 -8,25l38 0c0,-9 1,-17 2,-25l-32 0zm-8 39c1,9 3,17 8,24l32 0c-1,-7 -2,-16 -2,-24l-38 0zm54 24l20 0c1,-7 2,-16 2,-24l-24 0c0,8 1,17 2,24zm22 -38c0,-9 -1,-17 -2,-25l-20 0c-1,8 -2,16 -2,25l24 0zm12 38l32 0c5,-7 7,-15 8,-24l-38 0c0,8 -1,17 -2,24zm40 -38c-1,-9 -3,-18 -8,-25l-32 0c1,8 2,16 2,25l38 0zm-110 52c8,8 18,14 29,17 -1,-3 -2,-6 -3,-10 -1,-2 -1,-4 -2,-7l-24 0zm63 17c11,-3 21,-9 29,-17l-24 0c-1,3 -1,5 -2,7 -1,4 -2,7 -3,10zm-9 -17l-16 0 1 0c2,13 6,18 7,19 1,-1 5,-6 7,-19l1 0zm-10 -182l-19 0c-4,0 -7,-3 -7,-7 0,-4 3,-7 7,-7l19 0c4,0 7,3 7,7 0,4 -3,7 -7,7zm-57 0l-19 0c-4,0 -7,-3 -7,-7 0,-4 3,-7 7,-7l19 0c4,0 7,3 7,7 0,4 -3,7 -7,7zm-57 0l-19 0c-4,0 -7,-3 -7,-7 0,-4 3,-7 7,-7l19 0c4,0 7,3 7,7 0,4 -3,7 -7,7zm-60 30l0 -58c0,-12 9,-21 21,-21l310 0c12,0 21,9 21,21l0 58 -352 0z"/>
 </g>
</svg>
